<svg width="151" height="150" viewBox="0 0 151 150" fill="none" xmlns="http://www.w3.org/2000/svg"><path d="M149.938 69.5903C144.036 65.6137 138.233 58.6722 138.093 46.6862C129.114 48.2038 109.554 48.2038 101.305 22.4191C97.7942 21.2447 94.5656 19.3528 91.8249 16.8636C89.0841 14.3744 86.8911 11.3423 85.385 7.96006C83.5583 7.81954 81.7315 7.73523 79.8767 7.73523C65.9048 7.73245 52.2459 11.8733 40.6275 19.6339C29.0091 27.3946 19.9531 38.4265 14.6049 51.3343C9.25683 64.2422 7.85682 78.4462 10.5819 92.1498C13.307 105.853 20.0349 118.441 29.9145 128.321C39.7942 138.2 52.3819 144.928 66.0855 147.653C79.7891 150.378 93.9931 148.978 106.901 143.63C119.809 138.282 130.841 129.226 138.601 117.608C146.362 105.989 150.503 92.3304 150.5 78.3585C150.498 75.4268 150.31 72.4982 149.938 69.5903V69.5903ZM79.8767 98.4382C75.9047 98.441 72.0212 97.2657 68.7173 95.061C65.4133 92.8563 62.8374 89.7213 61.3155 86.0524C59.7935 82.3836 59.3939 78.3458 60.1671 74.4498C60.9403 70.5538 62.8516 66.9746 65.6593 64.165C68.4669 61.3554 72.0447 59.4416 75.9401 58.6656C79.8356 57.8897 83.8738 58.2865 87.5437 59.8059C91.2136 61.3253 94.3503 63.8989 96.5573 67.2013C98.7643 70.5037 99.9424 74.3865 99.9424 78.3585C99.9424 83.6815 97.8289 88.7868 94.0662 92.552C90.3036 96.3173 85.1998 98.4345 79.8767 98.4382V98.4382Z" fill="#C8102E"></path><mask id="mask0" mask-type="alpha" maskUnits="userSpaceOnUse" x="9" y="7" width="142" height="143"><path d="M149.938 69.5903C144.036 65.6137 138.233 58.6722 138.093 46.6862C129.114 48.2038 109.554 48.2038 101.305 22.4191C97.7942 21.2447 94.5656 19.3528 91.8249 16.8636C89.0841 14.3744 86.8911 11.3423 85.385 7.96006C83.5583 7.81954 81.7315 7.73523 79.8767 7.73523C65.9048 7.73245 52.2459 11.8733 40.6275 19.6339C29.0091 27.3946 19.9531 38.4265 14.6049 51.3343C9.25683 64.2422 7.85682 78.4462 10.5819 92.1498C13.307 105.853 20.0349 118.441 29.9145 128.321C39.7942 138.2 52.3819 144.928 66.0855 147.653C79.7891 150.378 93.9931 148.978 106.901 143.63C119.809 138.282 130.841 129.226 138.601 117.608C146.362 105.989 150.503 92.3304 150.5 78.3585C150.498 75.4268 150.31 72.4982 149.938 69.5903V69.5903ZM79.8767 98.4382C75.9047 98.441 72.0212 97.2657 68.7173 95.061C65.4133 92.8563 62.8374 89.7213 61.3155 86.0524C59.7935 82.3836 59.3939 78.3458 60.1671 74.4498C60.9403 70.5538 62.8516 66.9746 65.6593 64.165C68.4669 61.3554 72.0447 59.4416 75.9401 58.6656C79.8356 57.8897 83.8738 58.2865 87.5437 59.8059C91.2136 61.3253 94.3503 63.8989 96.5573 67.2013C98.7643 70.5037 99.9424 74.3865 99.9424 78.3585C99.9424 83.6815 97.8289 88.7868 94.0662 92.552C90.3036 96.3173 85.1998 98.4345 79.8767 98.4382V98.4382Z" fill="#CE0E2D"></path></mask><g mask="url(#mask0)"><path d="M155.123 -75.6745H147.957L147.957 227.643H155.123L155.123 -75.6745Z" fill="white"></path><path d="M140.79 -75.6745H133.624L133.624 227.643H140.79L140.79 -75.6745Z" fill="white"></path><path d="M126.458 -75.6745H119.292L119.292 227.643H126.458L126.458 -75.6745Z" fill="white"></path><path d="M112.125 -75.6745H104.959L104.959 227.643H112.125L112.125 -75.6745Z" fill="white"></path><path d="M97.7925 69.4921L97.7925 -75.6046H90.6262L90.6262 61.4968C93.6932 63.4658 96.1696 66.2287 97.7925 69.4921V69.4921Z" fill="white"></path><path d="M90.6262 95.2208L90.6262 227.643H97.7925L97.7925 87.2395C96.1734 90.5017 93.6959 93.261 90.6262 95.2208V95.2208Z" fill="white"></path><path d="M83.4178 58.6864V-75.6046H76.2515L76.2515 58.6864C77.4332 58.4659 78.6324 58.353 79.8345 58.3492C81.0366 58.3543 82.2359 58.4672 83.4178 58.6864V58.6864Z" fill="white"></path><path d="M76.2937 98.0313L76.2937 227.643H83.4599V98.0313C82.2785 98.2553 81.0792 98.3729 79.8767 98.3826C78.6742 98.3743 77.475 98.2567 76.2937 98.0313V98.0313Z" fill="white"></path><path d="M69.1132 61.4968L69.1132 -75.6046H61.9469L61.9469 69.4921C63.5738 66.2315 66.0493 63.4695 69.1132 61.4968V61.4968Z" fill="white"></path><path d="M61.9469 87.2395L61.9469 227.643H69.1132L69.1132 95.2208C66.0471 93.2567 63.5707 90.4985 61.9469 87.2395V87.2395Z" fill="white"></path><path d="M54.7806 -75.6745H47.6143L47.6143 227.643H54.7806L54.7806 -75.6745Z" fill="white"></path><path d="M40.4481 -75.6745H33.2818L33.2818 227.643H40.4481L40.4481 -75.6745Z" fill="white"></path><path d="M26.1153 -75.6745H18.9491L18.9491 227.643H26.1153L26.1153 -75.6745Z" fill="white"></path><path d="M11.7687 -75.6745H4.60245L4.60245 227.643H11.7687L11.7687 -75.6745Z" fill="white"></path></g><path d="M74.256 94.9256C69.8672 94.9284 65.5761 93.6295 61.9255 91.1932C58.275 88.7569 55.4289 85.2927 53.7474 81.2387C52.066 77.1847 51.6246 72.7231 52.4791 68.4182C53.3337 64.1134 55.4457 60.1586 58.5482 57.0542C61.6506 53.9499 65.604 51.8353 69.9083 50.9781C74.2126 50.1208 78.6745 50.5594 82.7295 52.2383C86.7845 53.9172 90.2507 56.761 92.6893 60.41C95.1279 64.059 96.4295 68.3493 96.4295 72.7382C96.4257 78.6191 94.0889 84.2583 89.9318 88.418C85.7747 92.5777 80.1369 94.9182 74.256 94.9256V94.9256ZM74.256 54.7802C70.7003 54.7775 67.2237 55.8295 64.266 57.8032C61.3084 59.7769 59.0028 62.5836 57.6408 65.8682C56.2788 69.1527 55.9217 72.7674 56.6147 76.2549C57.3077 79.7425 59.0197 82.9461 61.5339 85.4603C64.0482 87.9746 67.2518 89.6865 70.7393 90.3795C74.2269 91.0726 77.8415 90.7155 81.1261 89.3535C84.4106 87.9915 87.2172 85.6858 89.191 82.7282C91.1647 79.7705 92.2168 76.2939 92.214 72.7382C92.2103 67.9766 90.3171 63.4111 86.9501 60.0441C83.5832 56.6771 79.0176 54.784 74.256 54.7802V54.7802Z" fill="#3F2021"></path><path d="M74.2561 145.483C64.6189 145.617 55.0512 143.835 46.1088 140.239C37.1664 136.644 29.0276 131.307 22.1652 124.54C15.3028 117.772 9.85378 109.708 6.13453 100.817C2.41527 91.9252 0.5 82.3832 0.5 72.7451C0.5 63.107 2.41527 53.565 6.13453 44.6734C9.85378 35.7818 15.3028 27.718 22.1652 20.9503C29.0276 14.1827 37.1664 8.84619 46.1088 5.25086C55.0512 1.65554 64.6189 -0.126923 74.2561 0.00702633C75.9844 0.00702633 77.8392 0.0772844 79.8767 0.245903L81.1414 0.344264L81.6472 1.51055C83.051 4.62207 85.0824 7.4101 87.614 9.69991C90.1456 11.9897 93.1228 13.7319 96.3592 14.8174L97.3429 15.1687L97.652 16.1523C105.212 39.8011 122.467 40.6161 132.078 38.9861L134.509 38.5786V41.0377C134.608 50.2977 138.289 57.4218 145.427 62.2134L146.228 62.7474L146.341 63.7029C146.716 66.7001 146.908 69.7174 146.917 72.738C146.898 92.0109 139.24 110.49 125.62 124.126C112 137.762 93.5289 145.442 74.2561 145.483V145.483ZM74.2561 4.2225C60.701 4.21972 47.4496 8.23691 36.1779 15.766C24.9061 23.295 16.1202 33.9977 10.9317 46.5205C5.74307 59.0432 4.38475 72.8234 7.02853 86.1181C9.67231 99.4128 16.1994 111.625 25.7843 121.21C35.3692 130.795 47.5813 137.322 60.876 139.966C74.1708 142.609 87.9509 141.251 100.474 136.062C112.996 130.874 123.699 122.088 131.228 110.816C138.757 99.5445 142.774 86.2931 142.772 72.738C142.769 70.2026 142.624 67.6693 142.336 65.1502C138.845 62.6707 135.962 59.4309 133.905 55.6751C131.849 51.9193 130.671 47.7456 130.462 43.4686C120.753 44.5084 102.359 42.9206 93.9283 18.4146C87.137 15.8643 81.5573 10.8465 78.3029 4.36302C76.8837 4.26466 75.5207 4.2225 74.2561 4.2225V4.2225ZM74.2561 94.9255C69.8672 94.9283 65.5762 93.6294 61.9256 91.1931C58.275 88.7568 55.429 85.2925 53.7475 81.2386C52.066 77.1846 51.6247 72.723 52.4792 68.4181C53.3337 64.1132 55.4458 60.1585 58.5482 57.0541C61.6506 53.9497 65.604 51.8352 69.9083 50.9779C74.2127 50.1207 78.6745 50.5593 82.7296 52.2382C86.7846 53.9171 90.2507 56.7609 92.6893 60.4099C95.128 64.0589 96.4295 68.3492 96.4295 72.738C96.4258 78.6189 94.089 84.2581 89.9319 88.4179C85.7747 92.5776 80.137 94.918 74.2561 94.9255V94.9255ZM74.2561 54.7801C70.7004 54.7773 67.2237 55.8294 64.2661 57.8031C61.3085 59.7768 59.0028 62.5835 57.6408 65.868C56.2788 69.1525 55.9217 72.7673 56.6147 76.2548C57.3077 79.7423 59.0197 82.9459 61.534 85.4602C64.0483 87.9745 67.2519 89.6864 70.7394 90.3794C74.2269 91.0724 77.8416 90.7153 81.1261 89.3533C84.4106 87.9913 87.2173 85.6856 89.191 82.728C91.1647 79.7704 92.2168 76.2938 92.214 72.738C92.2103 67.9764 90.3171 63.4109 86.9502 60.044C83.5832 56.677 79.0177 54.7838 74.2561 54.7801V54.7801Z" fill="#3F2021"></path></svg>